<svg width="26" height="26" viewBox="0 0 26 26" fill="none" xmlns="http://www.w3.org/2000/svg">
<path fill-rule="evenodd" clip-rule="evenodd" d="M6.75 0.5C6.3356 0.5 5.93817 0.66462 5.64515 0.957646C5.35212 1.25067 5.1875 1.6481 5.1875 2.0625V3.625H3.625C2.7962 3.625 2.00134 3.95424 1.41529 4.54029C0.82924 5.12634 0.5 5.9212 0.5 6.75V22.375C0.5 23.2038 0.82924 23.9987 1.41529 24.5847C2.00134 25.1708 2.7962 25.5 3.625 25.5H22.375C23.2038 25.5 23.9987 25.1708 24.5847 24.5847C25.1708 23.9987 25.5 23.2038 25.5 22.375V6.75C25.5 5.9212 25.1708 5.12634 24.5847 4.54029C23.9987 3.95424 23.2038 3.625 22.375 3.625H20.8125V2.0625C20.8125 1.6481 20.6479 1.25067 20.3549 0.957646C20.0618 0.66462 19.6644 0.5 19.25 0.5C18.8356 0.5 18.4382 0.66462 18.1451 0.957646C17.8521 1.25067 17.6875 1.6481 17.6875 2.0625V3.625H8.3125V2.0625C8.3125 1.6481 8.14788 1.25067 7.85485 0.957646C7.56183 0.66462 7.1644 0.5 6.75 0.5ZM6.75 8.3125C6.3356 8.3125 5.93817 8.47712 5.64515 8.77015C5.35212 9.06317 5.1875 9.4606 5.1875 9.875C5.1875 10.2894 5.35212 10.6868 5.64515 10.9799C5.93817 11.2729 6.3356 11.4375 6.75 11.4375H19.25C19.6644 11.4375 20.0618 11.2729 20.3549 10.9799C20.6479 10.6868 20.8125 10.2894 20.8125 9.875C20.8125 9.4606 20.6479 9.06317 20.3549 8.77015C20.0618 8.47712 19.6644 8.3125 19.25 8.3125H6.75Z" fill="white"/>
</svg>
