<svg width="23" height="19" viewBox="0 0 23 19" fill="none" xmlns="http://www.w3.org/2000/svg">
<path d="M15.25 4C15.25 4.99456 14.8549 5.94839 14.1517 6.65165C13.4484 7.35491 12.4946 7.75 11.5 7.75C10.5054 7.75 9.55161 7.35491 8.84835 6.65165C8.14509 5.94839 7.75 4.99456 7.75 4C7.75 3.00544 8.14509 2.05161 8.84835 1.34835C9.55161 0.645088 10.5054 0.25 11.5 0.25C12.4946 0.25 13.4484 0.645088 14.1517 1.34835C14.8549 2.05161 15.25 3.00544 15.25 4ZM21.5 6.5C21.5 7.16304 21.2366 7.79893 20.7678 8.26777C20.2989 8.73661 19.663 9 19 9C18.337 9 17.7011 8.73661 17.2322 8.26777C16.7634 7.79893 16.5 7.16304 16.5 6.5C16.5 5.83696 16.7634 5.20107 17.2322 4.73223C17.7011 4.26339 18.337 4 19 4C19.663 4 20.2989 4.26339 20.7678 4.73223C21.2366 5.20107 21.5 5.83696 21.5 6.5ZM16.5 15.25C16.5 13.9239 15.9732 12.6521 15.0355 11.7145C14.0979 10.7768 12.8261 10.25 11.5 10.25C10.1739 10.25 8.90215 10.7768 7.96447 11.7145C7.02678 12.6521 6.5 13.9239 6.5 15.25V19H16.5V15.25ZM6.5 6.5C6.5 7.16304 6.23661 7.79893 5.76777 8.26777C5.29893 8.73661 4.66304 9 4 9C3.33696 9 2.70107 8.73661 2.23223 8.26777C1.76339 7.79893 1.5 7.16304 1.5 6.5C1.5 5.83696 1.76339 5.20107 2.23223 4.73223C2.70107 4.26339 3.33696 4 4 4C4.66304 4 5.29893 4.26339 5.76777 4.73223C6.23661 5.20107 6.5 5.83696 6.5 6.5ZM19 19V15.25C19.0018 13.9791 18.6791 12.7288 18.0625 11.6175C18.6167 11.4757 19.1959 11.4623 19.7561 11.5784C20.3162 11.6945 20.8424 11.937 21.2946 12.2874C21.7468 12.6378 22.1129 13.0868 22.3652 13.6003C22.6174 14.1137 22.749 14.678 22.75 15.25V19H19ZM4.9375 11.6175C4.32093 12.7288 3.99825 13.9791 4 15.25V19H0.25V15.25C0.249759 14.6776 0.380579 14.1126 0.632434 13.5986C0.884289 13.0845 1.25049 12.6349 1.70298 12.2843C2.15547 11.9336 2.68223 11.6912 3.24289 11.5756C3.80355 11.4601 4.38323 11.4744 4.9375 11.6175Z" fill="#29ABE2"/>
</svg>
