<svg width="42" height="42" viewBox="0 0 42 42" fill="none" xmlns="http://www.w3.org/2000/svg">
<path d="M21 32.4583C23.4652 32.4583 25.6437 31.7812 27.5354 30.427C30.183 28.5331 28.1195 25.1666 24.8642 25.1666H17.1357C13.8804 25.1666 11.8169 28.5331 14.4645 30.427C16.3562 31.7812 18.5347 32.4583 21 32.4583ZM11.1689 17.8356C11.77 18.4367 12.741 18.4479 13.3558 17.861L13.4358 17.7847C14.0506 17.1978 15.0247 17.2122 15.6258 17.8133C16.2334 18.4209 17.2217 18.4241 17.8293 17.8164C18.4319 17.2139 18.4376 16.2387 17.8422 15.6291L16.7549 14.5159C15.5368 13.2688 13.5346 13.257 12.3019 14.4897L11.1689 15.6227C10.5578 16.2337 10.5578 17.2245 11.1689 17.8356ZM24.1706 17.8164C24.7782 18.4241 25.7665 18.4209 26.3741 17.8133C26.9752 17.2122 27.9493 17.1978 28.5642 17.7847L28.6441 17.861C29.259 18.4479 30.2299 18.4367 30.831 17.8356C31.4421 17.2245 31.4421 16.2337 30.831 15.6227L29.698 14.4897C28.4653 13.257 26.4632 13.2688 25.2451 14.5159L24.1577 15.6291C23.5623 16.2387 23.568 17.2139 24.1706 17.8164ZM21 41.8333C18.118 41.8333 15.4097 41.2861 12.875 40.1916C10.3402 39.0986 8.13538 37.6145 6.26038 35.7395C4.38538 33.8645 2.90135 31.6597 1.80829 29.125C0.713848 26.5902 0.166626 23.8819 0.166626 21C0.166626 18.118 0.713848 15.4097 1.80829 12.875C2.90135 10.3402 4.38538 8.13538 6.26038 6.26038C8.13538 4.38538 10.3402 2.90065 12.875 1.80621C15.4097 0.713154 18.118 0.166626 21 0.166626C23.8819 0.166626 26.5902 0.713154 29.125 1.80621C31.6597 2.90065 33.8645 4.38538 35.7395 6.26038C37.6145 8.13538 39.0986 10.3402 40.1916 12.875C41.2861 15.4097 41.8333 18.118 41.8333 21C41.8333 23.8819 41.2861 26.5902 40.1916 29.125C39.0986 31.6597 37.6145 33.8645 35.7395 35.7395C33.8645 37.6145 31.6597 39.0986 29.125 40.1916C26.5902 41.2861 23.8819 41.8333 21 41.8333ZM21 37.6666C25.618 37.6666 29.5507 36.0437 32.7979 32.7979C36.0437 29.5507 37.6666 25.618 37.6666 21C37.6666 16.3819 36.0437 12.4493 32.7979 9.20204C29.5507 5.95621 25.618 4.33329 21 4.33329C16.3819 4.33329 12.45 5.95621 9.20413 9.20204C5.9569 12.4493 4.33329 16.3819 4.33329 21C4.33329 25.618 5.9569 29.5507 9.20413 32.7979C12.45 36.0437 16.3819 37.6666 21 37.6666Z" fill="white"/>
</svg>
