<svg width="44" height="42" viewBox="0 0 44 42" fill="none" xmlns="http://www.w3.org/2000/svg">
<path d="M33.5 41.75H10.5833V14.6667L25.1667 0.083374L27.7708 2.68754C28.0139 2.9306 28.2139 3.26046 28.3708 3.67712C28.5264 4.09379 28.6042 4.4931 28.6042 4.87504V5.60421L26.3125 14.6667H39.75C40.8611 14.6667 41.8333 15.0834 42.6667 15.9167C43.5 16.75 43.9167 17.7223 43.9167 18.8334V23C43.9167 23.2431 43.882 23.5035 43.8125 23.7813C43.7431 24.0591 43.6736 24.3195 43.6042 24.5625L37.3542 39.25C37.0417 39.9445 36.5208 40.5348 35.7917 41.0209C35.0625 41.507 34.2986 41.75 33.5 41.75ZM14.75 37.5834H33.5L39.75 23V18.8334H21L23.8125 7.37504L14.75 16.4375V37.5834ZM10.5833 14.6667V18.8334H4.33334V37.5834H10.5833V41.75H0.166672V14.6667H10.5833Z" fill="url(#paint0_linear_33_57)"/>
<defs>
<linearGradient id="paint0_linear_33_57" x1="0.166672" y1="0.083374" x2="41.7838" y2="43.7814" gradientUnits="userSpaceOnUse">
<stop/>
<stop offset="1" stop-color="#1A1A1A"/>
</linearGradient>
</defs>
</svg>
